<svg xmlns="http://www.w3.org/2000/svg" viewBox="0 0 525.38 67.81"><title>logo</title><g id="Layer_2" data-name="Layer 2"><g id="Layer_1-2" data-name="Layer 1"><path d="M24.19,15.69a7.32,7.32,0,0,1,3.38,3.92l.89-4.9H42.53L36.16,50.62H22.09L23,45.71a12.54,12.54,0,0,1-4.58,3.92,13.71,13.71,0,0,1-6.3,1.43,11.11,11.11,0,0,1-8.88-3.72Q0,43.61,0,36.93a35.64,35.64,0,0,1,.51-5.54A24.2,24.2,0,0,1,4,22.22a18,18,0,0,1,6.24-5.92,15.54,15.54,0,0,1,7.67-2A12.36,12.36,0,0,1,24.19,15.69Zm-7.1,12.52a7.63,7.63,0,0,0-2.26,4.45,7.74,7.74,0,0,0-.12,1.53,4.6,4.6,0,0,0,1.14,3.34A4.15,4.15,0,0,0,19,38.71,5.85,5.85,0,0,0,23,37.12a7.65,7.65,0,0,0,2.26-4.46,7.74,7.74,0,0,0,.12-1.53,4.62,4.62,0,0,0-1.14-3.34,4.19,4.19,0,0,0-3.12-1.18A5.82,5.82,0,0,0,17.09,28.21Z"/><path d="M76.43,18.21q4.3,3.95,4.36,11h-15c-.29-1.87-1.23-2.8-2.8-2.8a3.68,3.68,0,0,0-3,1.59,10.8,10.8,0,0,0-1.81,4.71A21.84,21.84,0,0,0,58,35a4.8,4.8,0,0,0,.77,3,2.49,2.49,0,0,0,2.1,1q2.41,0,3.69-2.8h15a22.13,22.13,0,0,1-8,11,20.88,20.88,0,0,1-12.51,4q-7.07,0-11.3-4T43.49,35.91a29.63,29.63,0,0,1,.44-4.52,21,21,0,0,1,3.92-9.11,19.63,19.63,0,0,1,7.38-6,22.5,22.5,0,0,1,9.65-2.07Q72.14,14.26,76.43,18.21Z"/><path d="M104.16,3.5,95.88,50.62H81.75L90,3.5Z"/><path d="M133.7,16.11a13.49,13.49,0,0,1,5.83,5.35,15.94,15.94,0,0,1,2.07,8.27,24.52,24.52,0,0,1-.39,4.21A20.14,20.14,0,0,1,129.5,49a23.73,23.73,0,0,1-9.87,2.07,19.33,19.33,0,0,1-8.75-1.88A13.83,13.83,0,0,1,105,43.8a15.76,15.76,0,0,1-2.1-8.27,23.27,23.27,0,0,1,.38-4.14,20.09,20.09,0,0,1,4.07-9.11,20.59,20.59,0,0,1,7.77-6,24.3,24.3,0,0,1,10-2.07A19.23,19.23,0,0,1,133.7,16.11ZM119.76,28.05a8.51,8.51,0,0,0-2.17,4.61,10.85,10.85,0,0,0-.19,1.85,4.61,4.61,0,0,0,1,3.25,3.58,3.58,0,0,0,2.74,1.08,5,5,0,0,0,3.57-1.56,8.47,8.47,0,0,0,2.16-4.62,9.2,9.2,0,0,0,.19-1.84,4.49,4.49,0,0,0-1-3.25,3.61,3.61,0,0,0-2.71-1.08A5,5,0,0,0,119.76,28.05Z"/><path d="M186.29,14.71,180,50.62H165.85l1-5.48a17.45,17.45,0,0,1-5.19,4.14,14.51,14.51,0,0,1-6.85,1.59q-5.22,0-8-3T144,39.47a22.47,22.47,0,0,1,.38-3.94L148,14.71H162.1l-3.38,19a11.08,11.08,0,0,0-.12,1.34,3.85,3.85,0,0,0,4.2,4.2,5.55,5.55,0,0,0,3.94-1.49,7,7,0,0,0,2-4v.32l3.38-19.35Z"/><path d="M231.69,3.5l-8.34,47.12H209.21l.89-4.91a12.69,12.69,0,0,1-4.55,3.92,13.53,13.53,0,0,1-6.27,1.43,10.91,10.91,0,0,1-8.72-3.85q-3.31-3.85-3.31-10.66a30.3,30.3,0,0,1,.44-5.16,24.21,24.21,0,0,1,3.54-9.17,17.9,17.9,0,0,1,6.23-5.92,15.58,15.58,0,0,1,7.68-2,12.18,12.18,0,0,1,6.2,1.43,7.35,7.35,0,0,1,3.35,3.92L217.55,3.5ZM204.28,28.21A7.57,7.57,0,0,0,202,32.66a7,7,0,0,0-.13,1.53A4.56,4.56,0,0,0,203,37.53a4.12,4.12,0,0,0,3.12,1.18,5.85,5.85,0,0,0,4-1.59,7.6,7.6,0,0,0,2.26-4.46,7.63,7.63,0,0,0,.13-1.53,4.62,4.62,0,0,0-1.15-3.34,4.16,4.16,0,0,0-3.12-1.18A5.78,5.78,0,0,0,204.28,28.21Z"/><path d="M268.42,17.89q3.31,3.63,3.31,10.06a25.24,25.24,0,0,1-.44,4.71,26.71,26.71,0,0,1-3.7,9.84,19.16,19.16,0,0,1-6.43,6.37,15.52,15.52,0,0,1-8,2.19,10.66,10.66,0,0,1-5.77-1.43,7.61,7.61,0,0,1-3.15-3.92l-3.88,22.1H226.27l9.36-53.1h14.14l-.89,4.9a12.61,12.61,0,0,1,4.55-3.92,13.5,13.5,0,0,1,6.27-1.43A11.24,11.24,0,0,1,268.42,17.89ZM254.7,37.12A7.6,7.6,0,0,0,257,32.66a7,7,0,0,0,.13-1.53,4.58,4.58,0,0,0-1.15-3.34,4.16,4.16,0,0,0-3.12-1.18,5.81,5.81,0,0,0-4,1.6,7.57,7.57,0,0,0-2.26,4.45,7,7,0,0,0-.13,1.53,4.6,4.6,0,0,0,1.15,3.34,4.12,4.12,0,0,0,3.12,1.18A5.83,5.83,0,0,0,254.7,37.12Z"/><path d="M295.1,3.5l-8.28,47.12H272.69L281,3.5Z"/><path d="M318,15.69a7.3,7.3,0,0,1,3.37,3.92l.9-4.9h14.07L330,50.62H315.92l.89-4.91a12.7,12.7,0,0,1-4.58,3.92,13.72,13.72,0,0,1-6.31,1.43A11.11,11.11,0,0,1,297,47.34q-3.21-3.73-3.21-10.41a35.5,35.5,0,0,1,.5-5.54,24.21,24.21,0,0,1,3.54-9.17,18,18,0,0,1,6.24-5.92,15.54,15.54,0,0,1,7.67-2A12.42,12.42,0,0,1,318,15.69Zm-7.1,12.52a7.57,7.57,0,0,0-2.26,4.45,7,7,0,0,0-.13,1.53,4.56,4.56,0,0,0,1.15,3.34,4.12,4.12,0,0,0,3.12,1.18,5.83,5.83,0,0,0,4-1.59,7.6,7.6,0,0,0,2.26-4.46,7,7,0,0,0,.13-1.53,4.58,4.58,0,0,0-1.15-3.34A4.16,4.16,0,0,0,315,26.61,5.79,5.79,0,0,0,310.92,28.21Z"/><path d="M354.5,36.16a2.9,2.9,0,0,0-.06.64c0,1.19.76,1.78,2.29,1.78h3.37l-2.16,12h-5.35q-12.54,0-12.54-10.64a23.91,23.91,0,0,1,.38-4.07l1.66-9.42h-4.46l2.1-11.78h4.46l1.52-8.66h14.14l-1.53,8.66h5.86l-2.1,11.78h-5.86Z"/><path d="M388.75,12a4.71,4.71,0,0,0-2.61.64,4,4,0,0,0-1.46,2h5.16l-2,11.78h-5.29l-4.26,24.13H364.11l4.21-24.13h-3.76l2-11.78h3.82a17.21,17.21,0,0,1,6.33-10.86Q381.75,0,389.52,0c.59,0,1.57,0,2.93.13l-2.17,12C389.52,12.08,389,12,388.75,12Z"/><path d="M420.4,16.11a13.52,13.52,0,0,1,5.82,5.35,15.94,15.94,0,0,1,2.07,8.27,25.5,25.5,0,0,1-.38,4.21A20.12,20.12,0,0,1,416.19,49a23.65,23.65,0,0,1-9.86,2.07,19.37,19.37,0,0,1-8.76-1.88,13.89,13.89,0,0,1-5.89-5.38,15.76,15.76,0,0,1-2.1-8.27,24.24,24.24,0,0,1,.38-4.14A20.1,20.1,0,0,1,394,22.28a20.59,20.59,0,0,1,7.77-6,24.25,24.25,0,0,1,10-2.07A19.28,19.28,0,0,1,420.4,16.11ZM406.45,28.05a8.44,8.44,0,0,0-2.16,4.61,9.92,9.92,0,0,0-.19,1.85,4.61,4.61,0,0,0,1,3.25,3.56,3.56,0,0,0,2.73,1.08,5,5,0,0,0,3.57-1.56,8.47,8.47,0,0,0,2.16-4.62,9.24,9.24,0,0,0,.2-1.84,4.49,4.49,0,0,0-1.06-3.25,3.6,3.6,0,0,0-2.7-1.08A5,5,0,0,0,406.45,28.05Z"/><path d="M454.71,16.33a14.14,14.14,0,0,1,6.82-1.88l-2.68,15.09h-4a11.23,11.23,0,0,0-6.14,1.4c-1.43.94-2.33,2.59-2.71,5l-2.61,14.71H429.25l6.3-35.91h14.13l-1.14,6.62A22.52,22.52,0,0,1,454.71,16.33Z"/><path d="M522.26,17.54q3.12,3.09,3.12,8.5a20.34,20.34,0,0,1-.31,3.76l-3.7,20.82H507.3l3.38-19a6.88,6.88,0,0,0,.06-1,3.68,3.68,0,0,0-1.11-2.86,4.53,4.53,0,0,0-3.16-1,5.82,5.82,0,0,0-3.81,1.24,5.72,5.72,0,0,0-2,3.4l-3.44,19.3H483.17l3.38-19a6.88,6.88,0,0,0,.06-1,3.68,3.68,0,0,0-1.11-2.86,4.53,4.53,0,0,0-3.16-1,5.88,5.88,0,0,0-3.91,1.3,5.71,5.71,0,0,0-1.94,3.6v-.32l-3.38,19.36H459l6.3-35.91h14.14l-.83,4.9a14.49,14.49,0,0,1,4.77-3.72,14.29,14.29,0,0,1,6.5-1.44,12.27,12.27,0,0,1,6.59,1.69A9.57,9.57,0,0,1,500.36,21a20.81,20.81,0,0,1,5.83-4.68,14.66,14.66,0,0,1,7.1-1.82Q519.14,14.45,522.26,17.54Z"/></g></g></svg>