<svg xmlns="http://www.w3.org/2000/svg" xmlns:xlink="http://www.w3.org/1999/xlink" viewBox="0 0 397.8 136.76"><defs><style>.cls-1{fill:url(#linear-gradient);}.cls-2{fill:url(#linear-gradient-2);}.cls-3{fill:url(#linear-gradient-3);}.cls-4{fill:url(#linear-gradient-4);}.cls-5{fill:url(#linear-gradient-5);}.cls-6{fill:url(#linear-gradient-6);}.cls-7{fill:url(#linear-gradient-7);}.cls-8{fill:url(#linear-gradient-8);}.cls-9{fill:url(#linear-gradient-9);}.cls-10{fill:url(#linear-gradient-10);}.cls-11{fill:url(#linear-gradient-11);}.cls-12{fill:url(#linear-gradient-12);}.cls-13{fill:url(#linear-gradient-13);}.cls-14{fill:url(#linear-gradient-14);}.cls-15{fill:url(#linear-gradient-15);}</style><linearGradient id="linear-gradient" x1="36.82" y1="204.42" x2="336.29" y2="-95.05" gradientUnits="userSpaceOnUse"><stop offset="0" stop-color="#ea6969"/><stop offset="0.99" stop-color="#b45bff"/></linearGradient><linearGradient id="linear-gradient-2" x1="-13.4" y1="282.75" x2="397.08" y2="-127.73" xlink:href="#linear-gradient"/><linearGradient id="linear-gradient-3" x1="57.79" y1="240.41" x2="348.28" y2="-50.08" xlink:href="#linear-gradient"/><linearGradient id="linear-gradient-4" x1="59.05" y1="273.64" x2="363.73" y2="-31.04" xlink:href="#linear-gradient"/><linearGradient id="linear-gradient-5" x1="55.36" y1="315.94" x2="381.13" y2="-9.82" xlink:href="#linear-gradient"/><linearGradient id="linear-gradient-6" x1="31.75" y1="248.58" x2="354.86" y2="-74.53" xlink:href="#linear-gradient"/><linearGradient id="linear-gradient-7" x1="-0.65" y1="313.84" x2="409.82" y2="-96.64" xlink:href="#linear-gradient"/><linearGradient id="linear-gradient-8" x1="60.5" y1="284.99" x2="364.07" y2="-18.58" xlink:href="#linear-gradient"/><linearGradient id="linear-gradient-9" x1="15.4" y1="354.97" x2="402.14" y2="-31.77" xlink:href="#linear-gradient"/><linearGradient id="linear-gradient-10" x1="14.51" y1="376.07" x2="404.32" y2="-13.73" xlink:href="#linear-gradient"/><linearGradient id="linear-gradient-11" x1="89.76" y1="331.39" x2="380.25" y2="40.89" xlink:href="#linear-gradient"/><linearGradient id="linear-gradient-12" x1="58.13" y1="388.22" x2="396.44" y2="49.91" xlink:href="#linear-gradient"/><linearGradient id="linear-gradient-13" x1="126.56" y1="364.29" x2="399.13" y2="91.72" xlink:href="#linear-gradient"/><linearGradient id="linear-gradient-14" x1="-6.83" y1="125.73" x2="283.22" y2="-164.32" xlink:href="#linear-gradient"/><linearGradient id="linear-gradient-15" x1="25.08" y1="192.2" x2="358.76" y2="-141.48" xlink:href="#linear-gradient"/></defs><title>re-logo</title><g id="Layer_2" data-name="Layer 2"><g id="Layer_1-2" data-name="Layer 1"><path class="cls-1" d="M184.67,51.12A12.52,12.52,0,0,1,190,56.24,15.22,15.22,0,0,1,191.8,64H179.49a5,5,0,0,0-1.86-2.87,5.6,5.6,0,0,0-3.4-1,6.64,6.64,0,0,0-5,2.2,13,13,0,0,0-3,8.21,6.41,6.41,0,0,0,1.34,4.31,4.69,4.69,0,0,0,3.81,1.58,7.28,7.28,0,0,0,3.74-1A8.61,8.61,0,0,0,178,72.5h12.31a22,22,0,0,1-7.86,10.68,21.17,21.17,0,0,1-12.76,4,17.77,17.77,0,0,1-8.37-1.84,12.59,12.59,0,0,1-5.28-5.19,16,16,0,0,1-1.82-7.76,25.36,25.36,0,0,1,4.32-14,21,21,0,0,1,7.57-6.71,21.74,21.74,0,0,1,10.21-2.39A17.87,17.87,0,0,1,184.67,51.12Z"/><path class="cls-2" d="M211.16,48l-6.84,38.92H192.64L199.48,48Z"/><path class="cls-3" d="M235.57,58.4a11.19,11.19,0,0,1,4.81,4.42,13.2,13.2,0,0,1,1.71,6.84,20.58,20.58,0,0,1-.31,3.47,16.66,16.66,0,0,1-9.68,12.44,19.63,19.63,0,0,1-8.16,1.71,16.16,16.16,0,0,1-7.23-1.55,11.47,11.47,0,0,1-4.87-4.45,13.05,13.05,0,0,1-1.73-6.83,19.67,19.67,0,0,1,.31-3.42,16.59,16.59,0,0,1,3.37-7.53,17,17,0,0,1,6.42-4.91,20.06,20.06,0,0,1,8.26-1.71A15.87,15.87,0,0,1,235.57,58.4Zm-11.52,9.87a7,7,0,0,0-1.79,3.81,8.84,8.84,0,0,0-.16,1.52,3.8,3.8,0,0,0,.84,2.69,3,3,0,0,0,2.27.89,4.1,4.1,0,0,0,2.94-1.29,6.94,6.94,0,0,0,1.79-3.81,7.51,7.51,0,0,0,.16-1.53,3.71,3.71,0,0,0-.87-2.68A3,3,0,0,0,227,67,4.12,4.12,0,0,0,224.05,68.27Z"/><path class="cls-4" d="M279,57.24l-5.21,29.67H262.13l.79-4.52a14.43,14.43,0,0,1-4.28,3.42A11.93,11.93,0,0,1,253,87.12a8.63,8.63,0,0,1-6.63-2.49A9.82,9.82,0,0,1,244,77.71a18.18,18.18,0,0,1,.31-3.26l3.05-17.21H259L256.24,73a8.37,8.37,0,0,0-.1,1.11,3.41,3.41,0,0,0,.92,2.55,3.45,3.45,0,0,0,2.55.92,4.56,4.56,0,0,0,3.26-1.24A5.71,5.71,0,0,0,264.55,73v.27l2.79-16Z"/><path class="cls-5" d="M316.53,48l-6.89,38.92H298l.73-4a10.43,10.43,0,0,1-3.76,3.24,11.07,11.07,0,0,1-5.18,1.18,9.06,9.06,0,0,1-7.21-3.18q-2.73-3.18-2.73-8.81a24.86,24.86,0,0,1,.37-4.26,19.88,19.88,0,0,1,2.92-7.58,14.87,14.87,0,0,1,5.15-4.89,12.89,12.89,0,0,1,6.34-1.68,10,10,0,0,1,5.13,1.18,6.06,6.06,0,0,1,2.76,3.23L304.85,48ZM293.88,68.4A6.28,6.28,0,0,0,292,72.08a6.09,6.09,0,0,0-.1,1.26,3.76,3.76,0,0,0,.95,2.76,3.42,3.42,0,0,0,2.57,1,4.79,4.79,0,0,0,3.34-1.32,6.22,6.22,0,0,0,1.87-3.68,6.06,6.06,0,0,0,.11-1.26,3.81,3.81,0,0,0-.95-2.77,3.46,3.46,0,0,0-2.58-1A4.82,4.82,0,0,0,293.88,68.4Z"/><path class="cls-6" d="M168,122.54l-2.05,11.83H154.24l6.53-37.24h16.3q6,0,9.1,2.68a9.24,9.24,0,0,1,3.11,7.37,16.47,16.47,0,0,1-.27,2.73,15,15,0,0,1-2.76,6.39,14.77,14.77,0,0,1-5.63,4.55,18.15,18.15,0,0,1-8,1.69Zm9.21-12.63a6.08,6.08,0,0,0,0-.84c0-1.72-1-2.58-3.1-2.58h-3.32l-1.21,6.84h3.32Q176.55,113.33,177.18,109.91Z"/><path class="cls-7" d="M207.53,95.45l-6.84,38.92H189l6.84-38.92Z"/><path class="cls-8" d="M226.47,105.52a6,6,0,0,1,2.79,3.23l.73-4h11.63l-5.26,29.67H224.73l.74-4.05a10.45,10.45,0,0,1-3.79,3.24,11.26,11.26,0,0,1-5.21,1.18,9.17,9.17,0,0,1-7.34-3.08c-1.77-2-2.65-4.91-2.65-8.6a29.52,29.52,0,0,1,.42-4.57,19.88,19.88,0,0,1,2.92-7.58A14.87,14.87,0,0,1,215,106a12.89,12.89,0,0,1,6.34-1.68A10.21,10.21,0,0,1,226.47,105.52Zm-5.87,10.34a6.27,6.27,0,0,0-1.86,3.68,5.33,5.33,0,0,0-.11,1.26,3.81,3.81,0,0,0,1,2.76,3.42,3.42,0,0,0,2.57,1,4.79,4.79,0,0,0,3.34-1.32,6.25,6.25,0,0,0,1.87-3.68,6.06,6.06,0,0,0,.11-1.26,3.81,3.81,0,0,0-.95-2.77,3.46,3.46,0,0,0-2.58-1A4.82,4.82,0,0,0,220.6,115.86Z"/><path class="cls-9" d="M256.61,122.43a2.58,2.58,0,0,0-.05.53q0,1.47,1.89,1.47h2.79l-1.79,9.94H255q-10.36,0-10.36-8.78a19.52,19.52,0,0,1,.32-3.37l1.36-7.78h-3.68l1.74-9.74h3.68l1.26-7.15H261l-1.26,7.15h4.84l-1.74,9.74H258Z"/><path class="cls-10" d="M284.91,102.49a3.82,3.82,0,0,0-2.15.53,3.26,3.26,0,0,0-1.21,1.68h4.26l-1.69,9.74h-4.36l-3.53,19.93H264.55L268,114.44h-3.11l1.69-9.74h3.15a14.25,14.25,0,0,1,5.24-9,16.76,16.76,0,0,1,10.54-3.18c.49,0,1.3,0,2.42.11l-1.78,9.94C285.54,102.53,285.12,102.49,284.91,102.49Z"/><path class="cls-11" d="M311.06,105.86a11.19,11.19,0,0,1,4.81,4.42,13.2,13.2,0,0,1,1.71,6.84,20.64,20.64,0,0,1-.32,3.47,16.62,16.62,0,0,1-3.34,7.52,16.82,16.82,0,0,1-6.33,4.92,19.63,19.63,0,0,1-8.16,1.71,16.13,16.13,0,0,1-7.23-1.55,11.47,11.47,0,0,1-4.87-4.45,13,13,0,0,1-1.73-6.83,19.67,19.67,0,0,1,.31-3.42,16.59,16.59,0,0,1,3.37-7.53,16.84,16.84,0,0,1,6.42-4.91,20,20,0,0,1,8.25-1.71A15.88,15.88,0,0,1,311.06,105.86Zm-11.52,9.86a7,7,0,0,0-1.79,3.82,8,8,0,0,0-.16,1.52,3.8,3.8,0,0,0,.84,2.69,3,3,0,0,0,2.26.89,4.12,4.12,0,0,0,2.95-1.29,7,7,0,0,0,1.79-3.81,8.29,8.29,0,0,0,.16-1.53,3.71,3.71,0,0,0-.87-2.68,3,3,0,0,0-2.24-.89A4.11,4.11,0,0,0,299.54,115.72Z"/><path class="cls-12" d="M339.41,106.05a11.61,11.61,0,0,1,5.63-1.56L342.83,117h-3.31a9.27,9.27,0,0,0-5.08,1.16,5.69,5.69,0,0,0-2.24,4.1l-2.15,12.15H318.37l5.21-29.67h11.67l-.94,5.47A18.8,18.8,0,0,1,339.41,106.05Z"/><path class="cls-13" d="M395.22,107a9.46,9.46,0,0,1,2.58,7,17,17,0,0,1-.26,3.1l-3.05,17.2H382.86l2.79-15.73a6.08,6.08,0,0,0,.05-.84,3,3,0,0,0-.92-2.36,3.67,3.67,0,0,0-2.6-.85,4.88,4.88,0,0,0-3.16,1,4.73,4.73,0,0,0-1.63,2.81l-2.84,15.94H362.92l2.79-15.73a4.68,4.68,0,0,0,.06-.84,3,3,0,0,0-.93-2.36,3.67,3.67,0,0,0-2.6-.85,4.83,4.83,0,0,0-3.23,1.08,4.74,4.74,0,0,0-1.61,3v-.26l-2.79,16H342.93l5.21-29.67h11.68l-.68,4a12.07,12.07,0,0,1,3.94-3.07,11.85,11.85,0,0,1,5.37-1.19,10.07,10.07,0,0,1,5.44,1.4,7.92,7.92,0,0,1,3.24,4,17.16,17.16,0,0,1,4.81-3.87,12.12,12.12,0,0,1,5.87-1.5C391,104.49,393.51,105.34,395.22,107Z"/><path class="cls-14" d="M150.31,39.83a12.74,12.74,0,0,1-1.33.41,122.56,122.56,0,0,0-25.39,7.23c-9,3.78-18,7.71-25.68,13.93-6.6,5.34-12.08,11.72-17.25,18.41C74,88.48,68.77,98.07,63.09,107.38c-3.34,5.45-6.78,10.83-11.24,15.47a43.44,43.44,0,0,1-17.12,10.86c-8.79,3.14-17.89,3.22-27,3A30.25,30.25,0,0,1,3,136.13c-2.23-.43-3.37-1.77-3-4a61.6,61.6,0,0,1,2.26-8.53C5.16,115.29,8.1,107,11,98.75c3-8.53,6-17,9-25.58,2.69-7.7,5.35-15.42,8-23.12q4.86-13.89,9.76-27.78c2-5.61,4-11.21,5.83-16.87A6.69,6.69,0,0,1,50.06.31C52.4.15,54.75,0,57.09,0c5.48,0,11,.13,16.43.24A17.22,17.22,0,0,1,76.1.6a5.7,5.7,0,0,1,4.78,3.89c2.19,6.37,4.46,12.7,6.68,19,1,2.91,1,2.85,4,2.91,5.3.1,10.6.29,15.9.46a6.64,6.64,0,0,1,1.51.26c-15.5,3.73-29.55,9.89-39.69,23.2-2.71-8.09-5.33-16-8-23.82l-.62,0Q50,58.22,39.32,89.92l.48.38c1.44-.74,2.91-1.43,4.3-2.24C51.69,83.62,58,77.68,63.79,71.13,68.15,66.18,72.23,61,76.5,55.94A56.81,56.81,0,0,1,96.61,41.17c11.32-5.19,23.21-6.61,35.52-5.45A70.52,70.52,0,0,1,150.31,39.83Z"/><path class="cls-15" d="M86.93,105.09a122.72,122.72,0,0,0-14.55,15l-.32-.23c.93-1.93,1.84-3.87,2.8-5.79,4.81-9.65,9.77-19.22,16-28.06,3.23-4.59,6.65-9,11.13-12.53,2.3-1.8,2.48-1.76,3.43,1q6.45,18.31,12.87,36.63c2,5.82,4.08,11.64,6,17.49a17,17,0,0,1,.76,4,3,3,0,0,1-2.61,3.5,35.85,35.85,0,0,1-5.94.63c-4.26.07-8.52,0-12.78-.07a27.7,27.7,0,0,1-4.52-.59,3.4,3.4,0,0,1-2.78-2.57c-2.87-8.89-5.83-17.75-8.77-26.62C87.52,106.32,87.26,105.83,86.93,105.09Z"/></g></g></svg>