<svg xmlns="http://www.w3.org/2000/svg" xmlns:xlink="http://www.w3.org/1999/xlink" viewBox="0 0 309.13 281.27"><defs><style>.cls-1{fill:url(#linear-gradient);}.cls-2{fill:url(#linear-gradient-2);}</style><linearGradient id="linear-gradient" x1="-20.83" y1="265.36" x2="642.57" y2="-398.04" gradientUnits="userSpaceOnUse"><stop offset="0" stop-color="#ea6969"/><stop offset="0.99" stop-color="#b45bff"/></linearGradient><linearGradient id="linear-gradient-2" x1="58.57" y1="388.3" x2="666.52" y2="-219.65" xlink:href="#linear-gradient"/></defs><title>Asset 4</title><g id="Layer_2" data-name="Layer 2"><g id="Layer_1-2" data-name="Layer 1"><path class="cls-1" d="M309.13,81.92a24.62,24.62,0,0,1-2.74.83c-17.88,3.31-35.46,7.82-52.22,14.87-18.52,7.79-37,15.86-52.8,28.65-13.58,11-24.85,24.1-35.48,37.88-13.75,17.82-24.46,37.55-36.15,56.68-6.85,11.22-13.94,22.28-23.1,31.83A89.6,89.6,0,0,1,71.43,275c-18.08,6.46-36.8,6.63-55.62,6.08A59.09,59.09,0,0,1,6.26,280c-4.59-.88-6.93-3.62-6.09-8.21A124,124,0,0,1,4.82,254.2c5.79-17.09,11.85-34.09,17.81-51.11q9.23-26.31,18.46-52.6c5.54-15.84,11-31.72,16.54-47.56C64.29,83.88,71,64.85,77.69,45.8c4-11.54,8.24-23,12-34.69C91.84,4.42,96.2,1.1,103,.63,107.77.3,112.6,0,117.42,0c11.26.05,22.53.27,33.79.5a33.25,33.25,0,0,1,5.31.74c4.72.87,8.16,3.19,9.82,8,4.5,13.09,9.17,26.12,13.73,39.18,2.09,6,2,5.85,8.23,6,10.9.21,21.8.61,32.7,1a13.53,13.53,0,0,1,3.11.54c-31.88,7.67-60.77,20.34-81.64,47.71-5.55-16.64-11-32.81-16.36-49l-1.28-.06q-22,65.18-44,130.39l1,.78c3-1.53,6-2.93,8.84-4.6,15.61-9.14,28.63-21.36,40.49-34.82,9-10.18,17.35-20.89,26.14-31.25,11.36-13.39,25.5-23.09,41.36-30.37C222,74,246.43,71.07,271.74,73.46A145.51,145.51,0,0,1,309.13,81.92Z"/><path class="cls-2" d="M178.78,216.12a254.31,254.31,0,0,0-29.93,30.94l-.66-.47c1.92-4,3.8-8,5.77-11.91,9.89-19.85,20.1-39.53,32.88-57.7,6.64-9.44,13.68-18.59,22.89-25.78,4.73-3.7,5.1-3.62,7.07,2q13.24,37.67,26.45,75.35c4.2,12,8.4,23.94,12.44,36a34,34,0,0,1,1.57,8.13c.31,3.88-1.57,6.49-5.36,7.19a75,75,0,0,1-12.22,1.3c-8.76.15-17.53.06-26.29-.14a59.69,59.69,0,0,1-9.29-1.22c-2.92-.54-4.74-2.24-5.72-5.29-5.91-18.28-12-36.5-18-54.73C180,218.65,179.46,217.65,178.78,216.12Z"/></g></g></svg>