<svg xmlns="http://www.w3.org/2000/svg" viewBox="0 0 446.15 153.39"><defs><style>.cls-1{fill:#8a4fff;}</style></defs><title>logo-one-color</title><g id="Layer_2" data-name="Layer 2"><g id="Layer_1-2" data-name="Layer 1"><path class="cls-1" d="M207.12,57.33a14.1,14.1,0,0,1,6,5.75,17.1,17.1,0,0,1,2,8.67h-13.8a5.53,5.53,0,0,0-2.1-3.21,6.21,6.21,0,0,0-3.8-1.15,7.45,7.45,0,0,0-5.64,2.48,14.66,14.66,0,0,0-3.33,9.2A7.19,7.19,0,0,0,188,83.91a5.28,5.28,0,0,0,4.27,1.77,8.16,8.16,0,0,0,4.19-1.15,9.61,9.61,0,0,0,3.25-3.22h13.8a24.56,24.56,0,0,1-8.82,12,23.67,23.67,0,0,1-14.3,4.48A19.91,19.91,0,0,1,181,95.71,14.12,14.12,0,0,1,175,89.9a17.93,17.93,0,0,1-2-8.71,28.32,28.32,0,0,1,4.84-15.69A23.4,23.4,0,0,1,186.32,58a24.35,24.35,0,0,1,11.45-2.69A20,20,0,0,1,207.12,57.33Z"/><path class="cls-1" d="M236.83,53.82l-7.67,43.66h-13.1l7.67-43.66Z"/><path class="cls-1" d="M264.2,65.5a12.53,12.53,0,0,1,5.4,5,14.78,14.78,0,0,1,1.92,7.67,22.7,22.7,0,0,1-.36,3.89,18.62,18.62,0,0,1-10.85,14,22,22,0,0,1-9.15,1.92,18,18,0,0,1-8.11-1.74,12.87,12.87,0,0,1-5.46-5,14.6,14.6,0,0,1-1.94-7.67,21.73,21.73,0,0,1,.35-3.83,18.58,18.58,0,0,1,3.78-8.44A18.82,18.82,0,0,1,247,65.71a22.5,22.5,0,0,1,9.27-1.92A17.84,17.84,0,0,1,264.2,65.5ZM251.28,76.56a7.94,7.94,0,0,0-2,4.28,10.07,10.07,0,0,0-.17,1.71,4.24,4.24,0,0,0,.94,3,3.32,3.32,0,0,0,2.54,1,4.61,4.61,0,0,0,3.3-1.44,7.94,7.94,0,0,0,2-4.28,8.54,8.54,0,0,0,.17-1.71,4.16,4.16,0,0,0-1-3,3.33,3.33,0,0,0-2.51-1A4.61,4.61,0,0,0,251.28,76.56Z"/><path class="cls-1" d="M312.93,64.2l-5.84,33.28H294l.89-5.08a15.94,15.94,0,0,1-4.81,3.84,13.44,13.44,0,0,1-6.34,1.47q-4.85,0-7.44-2.8c-1.73-1.87-2.59-4.45-2.59-7.76a21.09,21.09,0,0,1,.35-3.66l3.42-19.29h13l-3.12,17.64a9.54,9.54,0,0,0-.12,1.24,3.58,3.58,0,0,0,3.89,3.9,5.15,5.15,0,0,0,3.66-1.39,6.53,6.53,0,0,0,1.89-3.75v.3l3.13-17.94Z"/><path class="cls-1" d="M355,53.82l-7.73,43.66h-13.1l.83-4.55a11.67,11.67,0,0,1-4.22,3.63A12.4,12.4,0,0,1,325,97.89a10.11,10.11,0,0,1-8.08-3.57q-3.08-3.57-3.07-9.88a27.89,27.89,0,0,1,.41-4.78,22.31,22.31,0,0,1,3.28-8.5,16.65,16.65,0,0,1,5.78-5.48,14.4,14.4,0,0,1,7.11-1.89,11.22,11.22,0,0,1,5.75,1.33,6.83,6.83,0,0,1,3.1,3.62l2.65-14.92ZM329.6,76.71a7,7,0,0,0-2.09,4.13,6.69,6.69,0,0,0-.12,1.42,4.23,4.23,0,0,0,1.06,3.09,3.84,3.84,0,0,0,2.89,1.09A5.43,5.43,0,0,0,335.09,85a7,7,0,0,0,2.09-4.13,6.69,6.69,0,0,0,.12-1.42,4.23,4.23,0,0,0-1.06-3.09,3.84,3.84,0,0,0-2.89-1.1A5.42,5.42,0,0,0,329.6,76.71Z"/><path class="cls-1" d="M188.39,137.43l-2.3,13.28H173l7.32-41.78h18.28q6.74,0,10.21,3a10.35,10.35,0,0,1,3.48,8.26,19.72,19.72,0,0,1-.29,3.07,16.65,16.65,0,0,1-9.41,12.27,20.52,20.52,0,0,1-9,1.89Zm10.32-14.16a5.91,5.91,0,0,0,.06-.94q0-2.89-3.48-2.89h-3.72l-1.35,7.67h3.71Q198,127.11,198.71,123.27Z"/><path class="cls-1" d="M232.75,107.05l-7.66,43.66H212l7.67-43.66Z"/><path class="cls-1" d="M254,118.34a6.77,6.77,0,0,1,3.13,3.63l.83-4.54h13l-5.9,33.28h-13l.82-4.55a11.52,11.52,0,0,1-4.25,3.63,12.56,12.56,0,0,1-5.84,1.33,10.3,10.3,0,0,1-8.23-3.45q-3-3.45-3-9.65a32.49,32.49,0,0,1,.48-5.13,22.4,22.4,0,0,1,3.27-8.5,16.68,16.68,0,0,1,5.78-5.49,14.49,14.49,0,0,1,7.11-1.88A11.47,11.47,0,0,1,254,118.34Zm-6.57,11.6a7,7,0,0,0-2.1,4.13,6.59,6.59,0,0,0-.12,1.41,4.3,4.3,0,0,0,1.06,3.1,3.86,3.86,0,0,0,2.9,1.09,5.41,5.41,0,0,0,3.74-1.47,7.11,7.11,0,0,0,2.1-4.13,7.63,7.63,0,0,0,.11-1.42,4.26,4.26,0,0,0-1.06-3.1,3.88,3.88,0,0,0-2.89-1.09A5.37,5.37,0,0,0,247.42,129.94Z"/><path class="cls-1" d="M287.8,137.31a2.49,2.49,0,0,0-.06.59q0,1.65,2.13,1.65H293l-2,11.16h-5q-11.62,0-11.62-9.86a22.23,22.23,0,0,1,.35-3.77l1.54-8.74h-4.13l1.94-10.91h4.13l1.42-8h13.1l-1.42,8h5.43l-1.95,10.91h-5.43Z"/><path class="cls-1" d="M319.54,115a4.35,4.35,0,0,0-2.42.59,3.74,3.74,0,0,0-1.36,1.89h4.78l-1.88,10.91h-4.9l-3.95,22.37h-13.1l3.89-22.37h-3.48L299,117.43h3.54a15.94,15.94,0,0,1,5.87-10.06q4.63-3.57,11.83-3.57c.55,0,1.45,0,2.71.12l-2,11.15C320.25,115,319.78,115,319.54,115Z"/><path class="cls-1" d="M348.86,118.73a12.57,12.57,0,0,1,5.4,5,14.8,14.8,0,0,1,1.92,7.67,23.81,23.81,0,0,1-.35,3.9A18.71,18.71,0,0,1,345,149.2a21.94,21.94,0,0,1-9.15,1.92,18.05,18.05,0,0,1-8.11-1.74,12.87,12.87,0,0,1-5.46-5,14.69,14.69,0,0,1-1.94-7.67,22.63,22.63,0,0,1,.35-3.83,18.54,18.54,0,0,1,3.78-8.44,18.9,18.9,0,0,1,7.2-5.52A22.61,22.61,0,0,1,340.9,117,17.81,17.81,0,0,1,348.86,118.73Zm-12.92,11.06a7.83,7.83,0,0,0-2,4.28,9.22,9.22,0,0,0-.18,1.71,4.24,4.24,0,0,0,.94,3,3.32,3.32,0,0,0,2.54,1,4.58,4.58,0,0,0,3.3-1.45,7.74,7.74,0,0,0,2-4.27,8.58,8.58,0,0,0,.18-1.71,4.16,4.16,0,0,0-1-3,3.31,3.31,0,0,0-2.5-1A4.66,4.66,0,0,0,335.94,129.79Z"/><path class="cls-1" d="M380.66,118.93a13.12,13.12,0,0,1,6.32-1.74l-2.48,14h-3.72a10.4,10.4,0,0,0-5.69,1.29,6.37,6.37,0,0,0-2.51,4.61l-2.42,13.63h-13.1l5.84-33.28H376l-1.06,6.14A21,21,0,0,1,380.66,118.93Z"/><path class="cls-1" d="M443.26,120.05a10.59,10.59,0,0,1,2.89,7.88,19.1,19.1,0,0,1-.29,3.48l-3.43,19.3h-13l3.12-17.65a5.82,5.82,0,0,0,.06-.94,3.39,3.39,0,0,0-1-2.65,4.17,4.17,0,0,0-2.92-.95,5.4,5.4,0,0,0-3.54,1.15,5.24,5.24,0,0,0-1.83,3.16l-3.19,17.88H407l3.12-17.65a5.82,5.82,0,0,0,.06-.94,3.39,3.39,0,0,0-1-2.65,4.17,4.17,0,0,0-2.92-.95,5.48,5.48,0,0,0-3.63,1.21,5.36,5.36,0,0,0-1.8,3.33v-.29l-3.13,17.94h-13.1l5.85-33.28h13.09l-.76,4.54a13.7,13.7,0,0,1,4.42-3.45,13.35,13.35,0,0,1,6-1.33,11.37,11.37,0,0,1,6.11,1.57,8.79,8.79,0,0,1,3.62,4.45,19.56,19.56,0,0,1,5.4-4.34,13.62,13.62,0,0,1,6.58-1.68C438.56,117.19,441.33,118.15,443.26,120.05Z"/><path class="cls-1" d="M168.58,44.67a13.62,13.62,0,0,1-1.5.46,137.57,137.57,0,0,0-28.47,8.1c-10.1,4.25-20.17,8.65-28.8,15.63-7.4,6-13.55,13.14-19.34,20.65C83,99.24,77.12,110,70.75,120.43c-3.73,6.12-7.6,12.15-12.6,17.35A48.72,48.72,0,0,1,39,150c-9.86,3.52-20.08,3.62-30.34,3.32a32.63,32.63,0,0,1-5.21-.61c-2.5-.48-3.78-2-3.32-4.48a67.46,67.46,0,0,1,2.54-9.57c3.16-9.32,6.46-18.59,9.71-27.87,3.35-9.56,6.73-19.12,10.07-28.68,3-8.64,6-17.3,9-25.94Q36.88,40.55,42.37,25c2.2-6.3,4.49-12.57,6.54-18.92A7.49,7.49,0,0,1,56.15.35C58.77.16,61.4,0,64,0c6.15,0,12.29.15,18.43.27a17.65,17.65,0,0,1,2.89.41A6.34,6.34,0,0,1,90.71,5c2.45,7.14,5,14.24,7.49,21.37,1.14,3.25,1.11,3.18,4.49,3.25,5.94.12,11.89.33,17.83.52a7,7,0,0,1,1.69.29c-17.38,4.18-33.13,11.09-44.52,26L68.77,29.77l-.7,0q-12,35.55-24,71.11l.54.42c1.61-.83,3.26-1.59,4.82-2.51,8.51-5,15.61-11.64,22.08-19,4.9-5.55,9.46-11.4,14.25-17a63.68,63.68,0,0,1,22.56-16.56c12.69-5.82,26-7.42,39.84-6.12A79.87,79.87,0,0,1,168.58,44.67Z"/><path class="cls-1" d="M97.5,117.86a138.78,138.78,0,0,0-16.33,16.87l-.36-.26c1-2.16,2.08-4.34,3.15-6.49,5.39-10.82,11-21.56,17.93-31.47,3.62-5.15,7.46-10.14,12.48-14.06,2.58-2,2.78-2,3.86,1.08q7.22,20.53,14.42,41.09c2.29,6.53,4.58,13,6.79,19.61a19.07,19.07,0,0,1,.85,4.43,3.35,3.35,0,0,1-2.92,3.93,41.46,41.46,0,0,1-6.66.7c-4.78.08-9.56,0-14.34-.08a31.15,31.15,0,0,1-5.07-.66,3.82,3.82,0,0,1-3.12-2.88c-3.22-10-6.53-19.91-9.83-29.85C98.16,119.24,97.86,118.69,97.5,117.86Z"/></g></g></svg>